<svg width="36" height="36" viewBox="0 0 36 36" fill="none" xmlns="http://www.w3.org/2000/svg">
<path d="M15.2637 8.48535C12.0172 7.21189 8.7459 8.53111 7.40137 11.3691C6.45849 14.3569 7.25875 17.4288 9.01465 19.7891L9.02246 19.7998C10.2307 21.4683 11.6854 22.9213 13.1963 24.208L13.2129 24.2217L13.2295 24.2373C13.9195 24.8801 15.05 25.8496 16.1074 26.6631C16.6368 27.0703 17.1322 27.4258 17.5352 27.6797C17.7289 27.8018 17.8882 27.8897 18.0088 27.9482C18.1433 27.8837 18.3257 27.7736 18.5596 27.5977C18.7283 27.4708 18.8959 27.3334 19.0723 27.1885C19.2357 27.0542 19.4178 26.9056 19.5889 26.7793H19.5879C22.917 24.2468 26.3362 21.2825 28.0488 18.127C29.4559 15.1225 29.355 11.6381 27.3975 9.56348C24.748 7.20156 20.7831 7.68517 18.7891 10.1426L17.9922 11.125L17.2207 10.123C16.6873 9.43064 16.0377 8.88677 15.2637 8.48535Z" stroke="#4C526A" stroke-width="2"/>
</svg>
