<svg width="123" height="38" viewBox="0 0 123 38" fill="none" xmlns="http://www.w3.org/2000/svg">
<path d="M23.7104 10.2694L19.0304 27.0214H15.0704L11.9264 15.0934L8.63843 27.0214L4.70243 27.0454L0.19043 10.2694C0.19043 10.2694 2.42599 9.93052 3.79043 10.2694C8.84595 11.525 1.53617 23.1051 6.74243 23.2774C11.9909 23.4511 5.05773 11.5506 10.1504 10.2694C11.5684 9.91267 12.4777 9.90774 13.8944 10.2694C18.9383 11.557 11.9056 23.2967 17.1104 23.2054C22.2934 23.1144 15.0583 11.5301 20.0864 10.2694C21.4592 9.92521 23.7104 10.2694 23.7104 10.2694Z" fill="white"/>
<path d="M24.5604 20.3254C24.5604 18.9814 24.8244 17.7894 25.3524 16.7494C25.8964 15.7094 26.6244 14.9094 27.5364 14.3494C28.4644 13.7894 29.4964 13.5094 30.6324 13.5094C31.6244 13.5094 32.4884 13.7094 33.2244 14.1094C33.9764 14.5094 34.5764 15.0134 35.0244 15.6214C35.0244 15.6214 34.6624 14.3714 35.0244 13.7254C35.6703 12.5725 38.4084 13.7254 38.4084 13.7254V27.0214H35.0244V25.0774C34.5924 25.7014 33.9924 26.2214 33.2244 26.6374C32.4724 27.0374 31.6004 27.2374 30.6084 27.2374C29.4884 27.2374 28.4644 26.9494 27.5364 26.3734C26.6244 25.7974 25.8964 24.9894 25.3524 23.9494C24.8244 22.8934 24.5604 21.6854 24.5604 20.3254ZM35.0244 20.3734C35.0244 20.3734 34.8644 18.8614 34.5444 18.2854C34.2244 17.6934 33.7924 17.2454 33.2484 16.9414C32.7044 16.6214 32.1204 16.4614 31.4964 16.4614C30.8724 16.4614 30.2964 16.6134 29.7684 16.9174C29.2404 17.2214 28.8084 17.6694 28.4724 18.2614C28.1524 18.8374 27.9924 20.3254 27.9924 20.3254C27.9924 20.3254 28.1524 21.8294 28.4724 22.4374C28.8084 23.0294 29.2404 23.4854 29.7684 23.8054C30.3124 24.1254 30.8884 24.2854 31.4964 24.2854C32.1204 24.2854 32.7044 24.1334 33.2484 23.8294C33.7924 23.5094 34.2244 23.0614 34.5444 22.4854C34.8644 21.8934 35.0244 20.3734 35.0244 20.3734Z" fill="white"/>
<path d="M46.754 23.9254C50.9479 23.9254 46.0822 14.8802 50.114 13.7254C51.4565 13.3409 53.69 13.7254 53.69 13.7254L48.77 27.0214H44.69L39.794 13.7254C39.794 13.7254 42.0431 13.3361 43.394 13.7254C47.4239 14.8867 42.5601 23.9254 46.754 23.9254Z" fill="white"/>
<path d="M67.4572 20.0854C67.4572 20.5654 67.4252 20.9974 67.3612 21.3814C67.2972 21.7654 57.5612 20.4214 57.6412 21.3814C57.7212 22.3414 58.0572 23.0934 58.6492 23.6374C59.2412 24.1814 59.9692 24.4534 60.8332 24.4534C62.0812 24.4534 62.9692 23.9174 63.4972 22.8454C64.0252 21.7734 67.1212 22.8454 67.1212 22.8454C66.7372 24.1254 66.0012 25.1814 64.9132 26.0134C63.8252 26.8294 62.4892 27.2374 60.9052 27.2374C59.6252 27.2374 58.4732 26.9574 57.4492 26.3974C56.4412 25.8214 55.6492 25.0134 55.0732 23.9734C54.5132 22.9334 54.2332 21.7334 54.2332 20.3734C54.2332 18.9974 54.5132 17.7894 55.0732 16.7494C55.6332 15.7094 56.4172 14.9094 57.4252 14.3494C58.4332 13.7894 59.5932 13.5094 60.9052 13.5094C62.1692 13.5094 63.2972 13.7814 64.2892 14.3254C65.2972 14.8694 66.0732 15.6454 66.6172 16.6534C67.1772 17.6454 67.4572 18.7894 67.4572 20.0854ZM63.9772 19.1254C63.9612 18.2614 63.6492 17.5734 63.0412 17.0614C62.4332 16.5334 61.6892 16.2694 60.8092 16.2694C59.9772 16.2694 59.2732 16.5254 58.6972 17.0374C58.1372 17.5334 57.7932 18.2294 57.6652 19.1254C57.6652 19.1254 63.9932 19.9894 63.9772 19.1254Z" fill="white"/>
<path d="M74.5177 27.2374C73.4297 27.2374 72.4537 27.0454 71.5897 26.6614C70.7257 26.2614 70.0377 25.7254 69.5257 25.0534C69.0297 24.3814 68.7577 23.6374 68.7097 22.8214C68.6617 22.0054 72.0297 22.3094 72.0937 22.8214C72.1577 23.3334 72.4057 23.7574 72.8377 24.0934C73.2857 24.4294 74.4937 24.5974 74.4937 24.5974C74.4937 24.5974 75.6297 24.4694 75.9817 24.2134C76.3497 23.9574 76.5337 23.6294 76.5337 23.2294C76.5337 22.7974 75.8617 22.2694 75.8617 22.2694L73.7737 21.5494C73.7737 21.5494 71.9657 21.0614 71.3257 20.8054C70.7017 20.5494 70.1577 20.1574 69.6937 19.6294C69.2457 19.1014 69.0217 18.3894 69.0217 17.4934C69.0217 16.7574 69.2297 16.0854 69.6457 15.4774C70.0777 14.8694 70.6857 14.3894 71.4697 14.0374C72.2697 13.6854 73.2057 13.5094 74.2777 13.5094C75.8617 13.5094 77.1257 13.9094 78.0697 14.7094C79.0137 15.4934 79.5337 16.5574 79.6297 17.9014C79.7257 19.2454 76.4617 18.4294 76.4137 17.9014C76.3657 17.3734 76.1417 16.9574 75.7417 16.6534C75.3577 16.3334 74.1817 16.1734 74.1817 16.1734C74.1817 16.1734 73.1017 16.2854 72.7657 16.5094C72.4457 16.7334 72.2857 17.0454 72.2857 17.4454C72.2857 17.8934 72.5097 18.2374 72.9577 18.4774C73.4057 18.7014 75.0457 19.1734 75.0457 19.1734C75.0457 19.1734 76.7977 19.6614 77.4217 19.9174C78.0457 20.1734 78.5817 20.5734 79.0297 21.1174C79.4937 21.6454 79.7337 22.3494 79.7497 23.2294C79.7497 23.9974 79.5337 24.6854 79.1017 25.2934C78.6857 25.9014 78.0777 26.3814 77.2777 26.7334C76.4937 27.0694 75.5737 27.2374 74.5177 27.2374Z" fill="white"/>
<path d="M81.2118 18.6214C81.2118 16.8438 81.5798 15.5014 82.3158 14.2054C83.0678 12.8934 84.0838 11.8774 85.3638 11.1574C86.6598 10.4214 88.1078 10.0534 89.7078 10.0534C91.5798 10.0534 93.2198 10.5334 94.6278 11.4934C96.0358 12.4534 97.0198 13.7814 97.5798 15.4774C98.1398 17.1734 94.0998 16.2774 93.7158 15.4774C93.3318 14.6774 92.7878 14.0774 92.0838 13.6774C91.3958 13.2774 90.5958 13.0774 89.6838 13.0774C88.7078 13.0774 87.8358 13.3094 87.0678 13.7734C86.3158 14.2214 85.7238 14.8614 85.2918 15.6934C84.8758 16.5254 84.6678 18.6214 84.6678 18.6214C84.6678 18.6214 84.8758 20.7014 85.2918 21.5494C85.7238 22.3814 86.3158 23.0294 87.0678 23.4934C87.8358 23.9414 88.7078 24.1654 89.6838 24.1654C90.5958 24.1654 91.3958 23.9654 92.0838 23.5654C92.7878 23.1494 93.3318 22.5414 93.7158 21.7414C94.0998 20.9414 98.1398 20.0294 97.5798 21.7414C97.0198 23.4534 96.0358 24.7894 94.6278 25.7494C93.2358 26.6934 91.5958 27.1654 89.7078 27.1654C88.1078 27.1654 86.6598 26.8054 85.3638 26.0854C84.0838 25.3494 83.0678 24.3334 82.3158 23.0374C81.5798 21.7414 81.2118 20.399 81.2118 18.6214Z" fill="white"/>
<path d="M105.874 27.2374C104.594 27.2374 103.442 26.9574 102.418 26.3974C101.394 25.8214 100.586 25.0134 99.9937 23.9734C99.4177 22.9334 99.1297 21.7334 99.1297 20.3734C99.1297 19.0134 99.4257 17.8134 100.018 16.7734C100.626 15.7334 101.45 14.9334 102.49 14.3734C103.53 13.7974 104.69 13.5094 105.97 13.5094C107.25 13.5094 108.41 13.7974 109.45 14.3734C110.49 14.9334 111.306 15.7334 111.898 16.7734C112.506 17.8134 112.81 19.0134 112.81 20.3734C112.81 21.7334 112.498 22.9334 111.874 23.9734C111.266 25.0134 110.434 25.8214 109.378 26.3974C108.338 26.9574 107.17 27.2374 105.874 27.2374ZM105.874 24.3094C105.874 24.3094 107.05 24.1654 107.578 23.8774C108.122 23.5734 108.554 23.1254 108.874 22.5334C109.194 21.9414 109.354 20.3734 109.354 20.3734C109.354 20.3734 109.018 18.1414 108.346 17.4694C107.69 16.7814 105.922 16.4374 105.922 16.4374C105.922 16.4374 104.154 16.7814 103.498 17.4694C102.858 18.1414 102.538 20.3734 102.538 20.3734C102.538 20.3734 102.85 22.6134 103.474 23.3014C104.114 23.9734 105.874 24.3094 105.874 24.3094Z" fill="white"/>
</svg>
